<?xml version="1.0" standalone="no"?>
<!DOCTYPE svg PUBLIC "-//W3C//DTD SVG 20010904//EN"
 "http://www.w3.org/TR/2001/REC-SVG-20010904/DTD/svg10.dtd">
<svg version="1.0" xmlns="http://www.w3.org/2000/svg"
 width="3810.000000pt" height="3810.000000pt" viewBox="0 0 3810.000000 3810.000000"
 preserveAspectRatio="xMidYMid meet">
<metadata>
Created by potrace 1.14, written by Peter Selinger 2001-2017
</metadata>
<g transform="translate(0.000000,3810.000000) scale(0.100000,-0.100000)"
fill="#000000" stroke="none">
<path d="M11407 38043 c-1 0 -85 -4 -187 -8 -102 -4 -201 -8 -220 -10 -19 -2
-75 -6 -125 -9 -49 -4 -108 -8 -130 -10 -22 -2 -71 -7 -110 -11 -38 -4 -86 -8
-105 -10 -19 -2 -55 -6 -80 -9 -45 -7 -69 -10 -169 -21 -30 -4 -62 -8 -72 -10
-9 -2 -39 -6 -66 -10 -26 -3 -70 -10 -98 -15 -27 -5 -68 -12 -90 -15 -23 -3
-52 -7 -65 -10 -14 -3 -50 -9 -80 -15 -62 -11 -58 -11 -196 -39 -55 -12 -109
-23 -120 -25 -28 -6 -54 -12 -199 -47 -71 -17 -137 -32 -145 -34 -140 -31
-599 -173 -840 -260 -605 -220 -1212 -515 -1745 -849 -79 -50 -415 -275 -461
-309 -23 -18 -52 -39 -64 -47 -44 -30 -247 -185 -345 -264 -282 -227 -499
-422 -774 -696 -197 -196 -310 -319 -550 -595 -24 -28 -101 -121 -128 -155 -7
-8 -37 -46 -68 -84 -59 -72 -212 -273 -256 -335 -14 -20 -59 -83 -100 -141
-146 -205 -466 -703 -502 -780 -4 -8 -15 -28 -25 -45 -24 -39 -115 -201 -169
-300 -49 -90 -304 -606 -338 -685 -21 -47 -41 -89 -46 -95 -5 -5 -9 -15 -9
-21 0 -7 -13 -41 -29 -76 -162 -351 -360 -899 -535 -1478 -21 -72 -93 -333
-100 -365 -2 -5 -8 -30 -15 -55 -8 -25 -14 -49 -15 -55 -1 -5 -22 -91 -45
-191 l-44 -180 -161 -84 c-237 -123 -716 -400 -691 -400 6 0 42 5 80 11 39 5
86 12 105 14 19 2 51 6 70 9 45 7 111 14 180 21 30 3 69 8 85 10 33 5 186 17
225 18 17 1 24 -3 22 -13 -7 -30 -40 -206 -46 -245 -4 -22 -15 -89 -26 -150
-10 -60 -22 -130 -25 -155 -3 -25 -8 -56 -10 -70 -6 -35 -13 -77 -20 -130 -3
-25 -8 -56 -10 -70 -2 -14 -7 -50 -10 -80 -3 -30 -8 -66 -10 -80 -2 -14 -7
-50 -10 -80 -4 -30 -8 -66 -10 -80 -2 -14 -7 -52 -10 -85 -6 -68 -13 -130 -20
-195 -3 -25 -8 -76 -11 -115 -2 -38 -7 -86 -9 -105 -2 -19 -7 -80 -10 -135 -4
-55 -8 -116 -10 -136 -2 -20 -7 -97 -11 -170 -3 -74 -7 -159 -9 -189 -25 -497
-21 -1233 9 -1645 15 -207 51 -531 76 -682 11 -72 28 -172 36 -223 6 -37 30
-174 40 -225 3 -16 21 -104 40 -195 20 -91 38 -176 40 -189 3 -14 7 -28 9 -31
2 -4 7 -22 10 -40 3 -18 17 -76 31 -129 14 -53 28 -107 30 -120 8 -38 130
-457 159 -546 15 -44 28 -87 30 -95 5 -24 129 -373 178 -505 68 -182 117 -304
190 -475 137 -324 214 -490 389 -840 150 -301 197 -389 346 -655 24 -44 58
-105 75 -135 133 -240 484 -803 712 -1140 131 -194 382 -555 407 -585 5 -5 27
-35 49 -65 45 -62 44 -61 140 -190 38 -52 80 -108 93 -125 13 -16 79 -102 147
-190 134 -175 263 -337 433 -545 144 -176 148 -181 166 -199 8 -9 24 -28 36
-43 12 -15 43 -53 70 -84 220 -259 310 -362 328 -380 11 -11 40 -43 63 -70 61
-73 73 -86 159 -181 44 -47 86 -94 94 -103 20 -22 175 -193 218 -239 340 -365
458 -487 897 -926 342 -342 620 -614 780 -762 17 -15 91 -84 165 -153 74 -69
168 -156 210 -194 41 -39 89 -82 105 -98 17 -15 44 -39 60 -54 17 -15 55 -50
86 -78 30 -28 86 -78 124 -111 37 -33 75 -67 84 -75 9 -9 56 -52 106 -95 49
-44 95 -85 101 -91 6 -5 35 -30 64 -55 29 -24 60 -51 69 -59 9 -9 50 -45 91
-80 41 -36 77 -67 80 -70 3 -3 37 -32 75 -65 39 -33 72 -62 75 -65 3 -4 34
-30 70 -59 36 -30 67 -57 70 -60 3 -3 30 -26 60 -51 30 -25 57 -47 60 -51 7
-8 527 -439 650 -539 57 -47 114 -93 125 -102 76 -64 729 -581 835 -662 36
-27 67 -52 70 -56 3 -3 21 -17 40 -30 19 -13 37 -27 40 -30 8 -9 222 -172 530
-404 151 -114 282 -212 290 -219 20 -16 526 -386 570 -417 37 -26 38 -27 85
-63 58 -44 831 -593 863 -612 10 -5 33 -22 52 -36 37 -27 122 -87 330 -228 69
-47 163 -112 210 -144 206 -142 921 -617 929 -617 5 0 11 -3 13 -7 5 -11 97
-73 108 -73 6 0 10 -4 10 -10 0 -5 4 -10 10 -10 5 0 56 -31 112 -68 114 -75
308 -201 336 -217 9 -6 37 -24 62 -40 25 -16 53 -34 62 -40 10 -5 154 -96 320
-201 268 -168 543 -340 641 -399 19 -11 138 -83 266 -160 260 -157 254 -154
371 -222 47 -28 136 -80 198 -117 143 -83 95 -57 767 -433 l570 -319 30 15
c16 9 32 19 33 24 2 4 7 7 12 7 4 0 75 38 157 83 81 46 169 96 195 110 26 15
83 46 125 70 43 24 105 59 138 77 33 18 126 71 207 117 82 45 152 83 158 83 5
0 10 5 10 10 0 6 4 10 9 10 5 0 38 16 73 36 34 20 79 45 98 56 19 11 40 24 45
28 6 4 30 19 55 32 64 35 539 319 700 417 74 46 149 91 165 101 48 27 384 236
573 356 95 60 181 114 190 119 9 6 35 22 57 36 22 14 83 53 135 86 492 312
1306 850 1840 1218 192 132 293 202 325 225 17 12 73 51 125 87 134 93 763
542 895 638 172 125 221 162 515 380 151 112 280 207 285 212 6 5 26 20 45 33
19 14 42 30 50 37 14 12 150 115 350 268 238 181 937 732 1045 823 11 9 36 30
55 45 84 68 119 97 209 171 53 43 107 88 121 100 14 11 48 39 75 61 70 56 96
78 114 95 9 8 39 33 66 55 28 22 52 42 55 46 4 4 222 188 289 244 14 11 48 40
76 65 28 25 65 56 81 70 77 66 250 215 254 220 3 3 37 32 75 65 39 33 75 65
80 71 6 5 46 41 90 80 44 38 89 78 101 89 11 11 49 45 84 75 35 30 70 62 79
71 9 9 45 42 81 74 56 50 183 166 294 269 662 609 1490 1435 2016 2011 30 32
64 69 75 80 71 75 272 300 425 475 41 47 87 99 101 115 15 17 48 55 74 85 26
30 58 67 70 81 130 151 559 675 687 839 15 19 53 69 86 110 32 41 129 170 215
285 87 116 168 222 180 237 14 17 80 52 187 98 388 170 813 393 1180 620 l85
52 -60 -7 c-32 -4 -68 -9 -78 -11 -11 -2 -45 -6 -76 -10 -31 -3 -63 -8 -71 -9
-8 -2 -46 -6 -85 -10 -38 -4 -77 -9 -86 -10 -8 -2 -53 -6 -100 -10 -46 -4 -91
-8 -99 -10 -16 -3 -199 -16 -282 -20 -33 -2 -45 1 -41 9 4 6 50 76 103 156 53
80 134 206 181 280 46 74 87 137 92 138 4 2 7 7 7 12 0 4 30 57 67 116 72 118
131 219 226 384 33 58 69 121 80 140 163 284 447 843 592 1165 42 94 85 188
95 210 18 42 61 143 137 330 95 233 232 613 320 890 64 201 191 654 207 737 2
13 14 64 26 113 12 50 24 101 26 115 3 14 10 45 15 70 6 25 13 56 15 70 3 14
7 34 9 45 33 176 44 236 49 265 3 19 8 46 11 60 5 27 41 262 49 325 19 145 18
135 31 260 4 38 8 76 10 85 1 8 6 58 9 110 4 52 9 111 11 130 14 125 20 374
20 860 0 477 -4 655 -20 935 -9 163 -17 286 -20 325 -2 25 -6 79 -10 120 -7
87 -14 170 -20 220 -2 19 -7 64 -10 100 -4 36 -8 79 -10 95 -2 17 -6 57 -10
90 -7 68 -33 272 -41 325 -3 19 -7 53 -9 75 -3 22 -7 51 -10 65 -5 26 -7 37
-25 165 -7 44 -14 89 -16 100 -2 11 -9 47 -14 80 -5 33 -12 71 -15 85 -3 14
-7 39 -9 55 -5 32 -53 285 -61 323 -3 12 -7 32 -10 45 -3 12 -8 35 -10 51 -26
137 -135 588 -205 841 -42 151 -47 168 -95 330 -73 249 -314 935 -336 959 -5
6 -9 16 -9 24 0 8 -23 69 -51 135 -355 849 -722 1524 -1207 2222 -86 123 -346
470 -390 520 -10 11 -47 56 -82 100 -36 44 -69 85 -75 91 -5 6 -35 40 -65 75
-238 276 -515 563 -760 789 -62 58 -127 118 -144 133 -16 15 -52 47 -79 70
-28 23 -55 47 -61 52 -48 46 -336 275 -491 390 -330 246 -592 416 -997 649
-173 100 -588 306 -808 401 -503 217 -911 356 -1456 495 -215 54 -591 133
-749 157 -16 2 -68 10 -115 18 -47 8 -107 17 -135 20 -27 4 -61 8 -75 10 -37
6 -187 24 -245 29 -27 3 -68 7 -90 10 -65 7 -154 15 -245 22 -47 3 -104 7
-127 9 -109 9 -442 18 -658 18 -366 0 -676 -14 -1032 -48 -34 -3 -83 -8 -110
-10 -26 -2 -64 -6 -83 -9 -19 -3 -62 -8 -95 -11 -72 -8 -95 -11 -200 -25 -108
-15 -125 -18 -267 -41 -68 -11 -138 -22 -157 -24 -19 -2 -57 -9 -85 -14 -28
-6 -62 -12 -76 -15 -14 -2 -36 -7 -50 -10 -14 -3 -38 -7 -55 -10 -72 -11 -495
-103 -630 -137 -653 -165 -1167 -327 -1770 -557 -129 -49 -464 -184 -540 -218
-22 -10 -42 -18 -45 -19 -19 -6 -394 -173 -550 -246 -277 -129 -778 -385
-1078 -550 -238 -131 -253 -140 -294 -166 -21 -12 -40 -23 -42 -23 -3 0 -38
-20 -78 -44 -40 -23 -147 -87 -237 -141 -181 -107 -166 -105 -253 -48 -24 15
-52 33 -63 39 -11 6 -97 56 -190 111 -148 87 -226 131 -310 177 -11 6 -22 13
-25 16 -3 3 -20 13 -38 22 -47 25 -177 95 -247 134 -183 101 -729 376 -960
484 -154 72 -593 264 -730 320 -71 29 -139 56 -150 61 -11 4 -46 20 -78 33
-31 14 -58 25 -60 24 -2 -2 -180 65 -232 87 -16 6 -59 22 -95 35 -36 12 -74
26 -85 30 -11 5 -40 16 -65 24 -25 8 -110 37 -190 65 -261 89 -567 183 -870
266 -20 5 -211 55 -230 59 -8 2 -53 14 -100 25 -47 12 -94 23 -105 25 -11 2
-58 13 -105 25 -47 11 -98 22 -115 25 -16 3 -39 8 -50 10 -86 18 -184 39 -205
43 -14 2 -56 10 -95 18 -38 8 -110 21 -160 30 -49 8 -101 17 -115 19 -14 3
-43 7 -65 10 -22 4 -51 8 -65 11 -14 3 -41 7 -60 9 -53 7 -122 17 -150 22 -14
2 -63 8 -110 14 -47 6 -101 13 -120 15 -19 3 -57 7 -85 10 -27 2 -66 7 -85 9
-19 2 -69 7 -110 11 -41 4 -91 8 -110 10 -19 2 -80 7 -135 10 -55 4 -116 8
-135 10 -111 11 -894 27 -903 18z m723 -1857 c30 -3 104 -8 163 -11 60 -4 117
-8 127 -10 9 -2 57 -6 106 -10 49 -4 96 -8 104 -10 8 -2 49 -6 90 -10 41 -3
82 -8 90 -10 8 -2 40 -7 70 -10 30 -3 66 -8 80 -10 14 -2 57 -9 95 -15 262
-40 555 -93 690 -125 35 -8 75 -17 89 -20 14 -3 36 -7 49 -10 39 -8 447 -112
532 -135 525 -143 1210 -388 1785 -637 373 -162 982 -460 1290 -631 25 -14 88
-49 141 -78 147 -80 242 -133 259 -144 8 -5 44 -26 80 -46 97 -56 405 -241
483 -291 37 -24 71 -43 76 -43 5 0 11 -4 13 -8 2 -4 21 -19 43 -32 75 -45 210
-133 456 -296 136 -90 249 -164 253 -164 3 0 120 76 258 168 378 251 917 585
1178 730 25 14 74 41 110 62 36 20 92 52 125 70 33 18 92 49 130 70 569 310
1240 623 1810 845 195 76 515 193 545 200 8 2 33 10 55 18 62 24 420 137 451
143 15 3 31 7 35 10 19 11 588 163 669 178 14 2 54 11 90 20 73 17 68 16 240
51 169 34 152 31 360 66 205 34 216 35 280 44 25 3 61 7 80 10 19 3 55 7 80
10 25 3 61 8 80 10 19 3 62 7 95 10 33 3 76 7 95 10 19 2 71 7 115 10 44 3
105 8 135 11 295 24 1005 23 1250 -1 19 -2 73 -6 120 -10 47 -3 96 -8 110 -10
14 -2 56 -7 93 -10 37 -4 76 -8 85 -9 9 -2 44 -7 77 -11 32 -4 68 -9 80 -11
11 -2 38 -6 60 -9 22 -3 51 -7 65 -9 44 -8 144 -25 180 -31 62 -10 282 -56
390 -82 58 -14 112 -26 120 -28 27 -6 173 -46 255 -70 746 -218 1421 -535
2065 -969 74 -50 142 -96 150 -103 8 -6 69 -52 135 -100 139 -104 312 -244
475 -387 118 -103 483 -463 581 -572 29 -33 72 -80 94 -104 188 -206 487 -596
692 -905 306 -459 526 -862 783 -1430 9 -22 36 -85 59 -140 47 -111 57 -135
71 -167 5 -13 19 -48 30 -78 11 -30 25 -64 30 -75 47 -104 255 -727 305 -915
2 -8 16 -55 30 -105 71 -248 191 -767 231 -995 2 -14 7 -36 9 -50 3 -14 8 -43
11 -65 3 -22 7 -42 9 -45 2 -3 6 -26 10 -50 3 -25 10 -67 15 -95 5 -27 12 -68
15 -90 3 -23 7 -50 9 -60 2 -11 7 -42 10 -70 4 -27 9 -61 11 -75 3 -21 33
-256 50 -390 2 -19 7 -64 10 -100 3 -36 8 -81 10 -100 7 -55 14 -127 20 -220
4 -47 8 -101 10 -120 2 -19 6 -89 10 -155 4 -66 8 -145 10 -175 23 -367 23
-1201 0 -1455 -2 -22 -6 -76 -10 -120 -3 -44 -8 -96 -10 -115 -2 -19 -7 -62
-10 -95 -3 -33 -10 -87 -15 -120 -5 -33 -12 -84 -15 -114 -4 -30 -9 -63 -11
-75 -2 -11 -6 -38 -10 -61 -45 -310 -147 -755 -265 -1150 -119 -399 -320 -934
-496 -1320 -33 -71 -75 -164 -94 -205 -67 -147 -271 -547 -354 -695 -12 -22
-38 -69 -57 -105 -40 -74 -62 -113 -107 -188 -17 -29 -31 -54 -31 -56 0 -2
-37 -63 -81 -137 -45 -74 -90 -150 -101 -169 -57 -99 -258 -412 -400 -623
-254 -377 -638 -907 -658 -907 -6 0 -54 9 -106 21 -53 11 -104 22 -113 24 -9
2 -56 13 -106 25 -49 12 -97 23 -105 25 -143 31 -634 194 -785 260 -16 7 -75
32 -130 55 -117 49 -402 190 -501 248 -38 22 -86 49 -107 61 -150 84 -497 326
-621 434 l-40 34 166 249 c220 332 413 647 535 874 23 41 63 116 91 167 50 92
262 518 262 526 0 3 18 44 40 91 22 47 40 88 40 90 0 3 11 29 24 58 96 212
255 651 335 929 63 217 154 614 176 764 3 22 10 65 15 95 5 30 12 80 15 110 3
30 8 62 10 70 2 8 7 51 10 95 4 44 9 94 11 110 26 194 26 1109 -1 1430 -3 28
-7 82 -9 120 -8 113 -16 197 -22 244 -3 24 -7 62 -10 85 -8 91 -15 147 -29
246 -3 22 -8 59 -11 83 -3 23 -7 53 -9 67 -2 14 -9 57 -15 95 -18 118 -33 203
-45 265 -3 14 -9 50 -15 80 -20 108 -45 229 -71 337 -11 49 -22 95 -24 105 -8
38 -88 338 -105 393 -122 400 -205 637 -322 915 -191 458 -456 947 -720 1326
-109 158 -294 399 -385 504 -12 14 -31 36 -43 50 -217 254 -576 600 -799 770
-18 14 -38 30 -44 35 -26 24 -178 135 -267 197 -410 283 -888 527 -1344 684
-94 33 -271 90 -306 99 -154 41 -374 96 -405 101 -22 3 -42 7 -46 9 -3 2 -21
7 -40 10 -19 3 -56 10 -84 15 -60 12 -105 19 -215 35 -25 4 -56 8 -70 10 -14
2 -43 6 -65 9 -22 4 -67 9 -100 11 -33 3 -76 7 -95 10 -19 2 -75 7 -125 10
-49 4 -117 8 -150 11 -77 7 -586 6 -690 0 -138 -9 -259 -18 -290 -20 -89 -9
-182 -19 -195 -21 -8 -2 -42 -6 -75 -9 -33 -4 -71 -9 -85 -11 -14 -2 -45 -7
-70 -10 -25 -3 -83 -12 -130 -20 -47 -8 -103 -17 -125 -20 -22 -3 -46 -8 -53
-10 -7 -3 -34 -7 -60 -11 -26 -3 -50 -8 -53 -10 -3 -1 -59 -14 -125 -28 -363
-75 -817 -204 -1204 -343 -147 -52 -397 -148 -457 -174 -23 -11 -44 -19 -47
-19 -6 0 -284 -121 -393 -171 -35 -16 -93 -43 -130 -60 -82 -37 -564 -278
-578 -288 -5 -5 -55 -32 -110 -61 -176 -93 -442 -247 -670 -387 -66 -41 -129
-80 -139 -86 -70 -43 -275 -176 -411 -267 l-160 -107 -205 136 c-113 75 -254
167 -315 205 -60 38 -121 76 -135 85 -37 23 -51 32 -125 76 -37 22 -79 47 -93
56 -107 64 -234 139 -237 139 -2 0 -26 13 -52 28 -26 16 -77 44 -113 64 -36
20 -85 47 -110 60 -207 115 -550 286 -810 406 -775 355 -1673 643 -2400 767
-129 22 -271 44 -320 50 -25 3 -63 8 -85 11 -77 10 -94 11 -275 29 -46 4 -186
15 -275 20 -75 5 -642 6 -700 1 -27 -2 -93 -7 -145 -11 -52 -3 -115 -8 -140
-11 -25 -2 -63 -7 -85 -9 -330 -36 -661 -99 -971 -186 -137 -38 -465 -146
-528 -173 -17 -7 -62 -26 -101 -41 -234 -94 -472 -213 -768 -383 -66 -38 -291
-186 -311 -204 -11 -10 -26 -18 -33 -18 -7 0 -13 -3 -13 -7 0 -5 -17 -19 -38
-33 -91 -61 -321 -245 -462 -369 -119 -105 -402 -388 -495 -496 -43 -49 -92
-106 -109 -125 -34 -38 -65 -76 -111 -136 -54 -70 -61 -74 -104 -69 -22 3 -77
7 -123 10 -46 2 -123 7 -173 10 -100 7 -165 10 -400 21 -207 10 -1043 10
-1250 0 -238 -11 -518 -28 -645 -40 -25 -3 -76 -8 -115 -11 -73 -6 -139 -13
-190 -20 -17 -2 -60 -7 -95 -10 -36 -3 -76 -7 -90 -10 -14 -2 -49 -7 -79 -10
-30 -4 -62 -8 -72 -10 -10 -2 -42 -6 -71 -9 -29 -4 -64 -8 -78 -11 -13 -3 -42
-7 -65 -10 -22 -3 -47 -8 -55 -10 -8 -2 -37 -6 -65 -10 -27 -3 -61 -8 -75 -10
-51 -10 -78 -15 -195 -36 -131 -23 -417 -83 -589 -124 -60 -14 -111 -23 -114
-21 -8 8 181 519 248 671 10 22 44 101 66 153 85 197 243 522 345 710 38 69
69 127 69 129 0 1 17 31 38 65 21 35 41 68 43 73 8 20 124 212 161 267 21 31
38 59 38 62 0 5 159 241 219 326 17 25 39 56 49 70 18 27 225 302 245 326 7 8
17 20 22 27 6 7 40 48 75 92 36 44 70 85 75 91 6 6 33 37 60 69 100 117 268
296 381 409 170 168 222 216 519 475 17 15 82 67 145 116 63 50 122 95 130
102 191 150 633 436 890 576 143 79 493 249 630 306 80 34 154 66 165 71 175
80 857 294 1070 336 11 2 34 7 50 11 17 4 32 7 35 8 3 1 19 4 35 8 46 11 293
58 375 72 19 3 46 7 60 10 48 9 118 19 215 30 28 4 61 8 75 10 14 2 50 7 80
10 55 6 74 8 210 20 41 4 93 8 115 10 22 2 105 7 185 10 80 4 146 8 148 9 4 5
710 -3 772 -8z m-8240 -6960 c14 -3 43 -7 65 -11 64 -9 158 -24 185 -30 14 -3
41 -8 60 -11 19 -3 80 -15 135 -26 55 -11 107 -21 115 -23 51 -10 322 -79 411
-105 57 -17 111 -33 119 -35 23 -5 292 -96 320 -108 14 -6 27 -11 30 -12 3 -1
18 -7 33 -13 16 -7 31 -12 34 -12 3 0 76 -30 162 -66 213 -91 482 -225 603
-301 21 -13 40 -23 42 -23 3 0 38 -21 78 -46 349 -222 610 -424 877 -681 l104
-100 -32 -164 c-18 -90 -34 -175 -36 -189 -3 -14 -7 -38 -10 -55 -3 -16 -8
-46 -11 -65 -2 -19 -8 -48 -11 -65 -4 -16 -7 -39 -9 -50 -2 -30 -24 -178 -29
-206 -3 -13 -7 -51 -10 -84 -3 -33 -8 -71 -10 -85 -4 -25 -11 -88 -20 -182 -3
-29 -8 -69 -10 -88 -3 -19 -7 -75 -10 -125 -4 -49 -8 -110 -10 -135 -33 -385
-33 -1186 0 -1470 2 -19 7 -64 10 -100 3 -36 8 -76 10 -90 2 -14 7 -45 10 -70
3 -25 8 -56 10 -70 2 -14 7 -43 10 -65 3 -23 7 -52 10 -65 3 -14 9 -50 15 -80
6 -30 12 -66 15 -80 3 -14 8 -41 11 -60 5 -27 51 -225 78 -335 149 -601 467
-1378 834 -2040 137 -247 223 -392 360 -610 74 -117 392 -595 413 -618 5 -7
29 -39 53 -72 53 -74 267 -365 283 -385 7 -8 65 -82 129 -165 65 -82 129 -164
143 -181 14 -17 33 -40 41 -50 46 -59 145 -180 150 -184 3 -3 39 -45 80 -95
41 -49 77 -92 80 -95 3 -3 47 -54 99 -115 52 -60 99 -115 105 -120 6 -6 40
-44 76 -85 36 -41 74 -84 85 -96 11 -11 56 -61 100 -110 44 -49 116 -127 160
-174 44 -46 114 -121 155 -165 199 -212 863 -868 1141 -1127 20 -18 65 -60
100 -93 36 -33 102 -94 148 -135 46 -41 96 -86 111 -100 68 -62 189 -170 225
-201 22 -18 49 -43 60 -54 21 -21 554 -479 640 -550 26 -22 67 -56 90 -75 181
-154 745 -607 1000 -805 50 -38 97 -75 105 -82 13 -11 308 -236 365 -279 435
-326 660 -491 1045 -765 187 -134 294 -208 603 -422 179 -124 789 -533 957
-642 41 -27 138 -90 215 -140 121 -78 521 -331 725 -458 36 -22 88 -55 115
-72 160 -102 814 -490 1021 -605 l50 -28 80 45 c318 183 969 572 1149 688 28
17 100 62 160 100 687 429 1471 952 2195 1464 270 191 303 214 315 224 6 4 42
30 80 58 90 64 317 231 435 319 374 279 507 380 795 604 189 147 466 366 475
376 3 3 25 21 50 40 25 19 74 59 110 88 68 56 71 59 160 132 82 67 413 343
426 355 6 5 22 19 35 30 87 72 155 130 164 139 6 6 57 51 115 101 84 72 428
375 476 420 10 10 158 145 219 200 153 140 367 343 599 568 l111 108 80 -6
c44 -4 94 -8 110 -10 121 -15 184 -21 310 -30 44 -3 98 -7 120 -9 22 -3 83 -7
135 -10 52 -3 133 -9 180 -12 490 -32 1296 -37 1800 -9 131 7 274 16 310 20
19 1 80 6 135 10 55 4 107 9 117 10 9 2 52 6 95 10 42 3 91 8 108 10 198 27
205 26 163 -12 -13 -11 -38 -37 -57 -59 -53 -60 -262 -287 -390 -423 -361
-384 -1122 -1145 -1356 -1357 -16 -15 -86 -80 -155 -145 -69 -65 -137 -128
-151 -141 -29 -27 -217 -199 -264 -243 -18 -16 -66 -59 -106 -95 -40 -36 -77
-70 -83 -75 -6 -6 -49 -44 -95 -85 -47 -41 -92 -82 -101 -90 -9 -8 -32 -28
-51 -45 -54 -47 -193 -169 -205 -180 -6 -5 -35 -31 -65 -57 -30 -25 -65 -56
-79 -68 -14 -12 -47 -40 -74 -63 -27 -23 -54 -46 -60 -52 -10 -9 -92 -79 -170
-145 -17 -14 -48 -41 -70 -61 -70 -61 -456 -383 -487 -405 -17 -12 -44 -34
-62 -50 -18 -16 -88 -74 -157 -129 -69 -55 -127 -103 -130 -106 -27 -31 -935
-740 -1260 -985 -58 -43 -107 -81 -110 -84 -3 -3 -57 -44 -120 -90 -63 -47
-119 -88 -125 -93 -5 -4 -59 -44 -120 -89 -60 -45 -126 -93 -145 -108 -104
-80 -914 -661 -1121 -805 -39 -27 -100 -70 -135 -95 -181 -129 -1161 -797
-1211 -825 -10 -6 -90 -58 -178 -116 -88 -58 -200 -132 -250 -164 -49 -32
-133 -86 -185 -120 -182 -119 -467 -299 -785 -497 -176 -110 -332 -208 -347
-219 -15 -10 -30 -19 -33 -19 -4 0 -30 -15 -58 -34 -74 -47 -554 -338 -637
-384 -25 -14 -100 -58 -167 -99 -67 -40 -124 -73 -127 -73 -3 0 -30 -16 -60
-35 -30 -19 -58 -35 -61 -35 -4 0 -19 -8 -33 -19 -15 -10 -52 -32 -82 -48 -30
-16 -64 -35 -75 -42 -21 -13 -73 14 -445 232 -19 11 -44 25 -55 31 -23 14
-123 72 -145 86 -8 5 -125 75 -260 156 -135 81 -315 190 -400 242 -222 137
-437 270 -495 307 -232 147 -277 175 -285 175 -5 0 -10 4 -12 8 -1 4 -34 27
-73 51 -313 195 -1187 771 -1670 1101 -66 46 -154 106 -195 134 -41 28 -77 53
-80 56 -3 3 -12 10 -21 15 -16 10 -203 139 -244 169 -11 8 -113 80 -226 159
-114 80 -352 250 -529 379 -177 128 -334 242 -350 253 -63 44 -462 342 -570
424 -14 10 -142 108 -285 217 -143 108 -283 216 -311 238 -28 23 -84 66 -124
96 -40 30 -77 60 -84 65 -6 6 -31 26 -56 45 -62 48 -36 27 -440 351 -339 271
-986 805 -1037 855 -12 13 -31 28 -41 36 -10 7 -45 36 -78 64 -32 29 -95 82
-139 120 -44 38 -82 71 -85 74 -3 3 -36 32 -75 65 -38 33 -74 65 -80 71 -5 6
-41 37 -80 70 -38 32 -76 66 -85 74 -9 8 -54 49 -100 90 -121 107 -184 164
-284 255 -49 44 -100 91 -115 104 -21 20 -171 158 -282 261 -403 374 -1031
993 -1379 1359 -91 96 -183 193 -205 216 -22 23 -83 88 -135 145 -52 56 -100
108 -106 114 -5 6 -57 63 -114 126 -57 63 -109 120 -114 126 -15 15 -102 114
-236 269 -62 72 -125 144 -140 161 -269 303 -924 1132 -1165 1474 -27 39 -55
76 -60 83 -39 45 -421 609 -541 800 -34 53 -66 104 -106 167 -269 426 -642
1111 -820 1505 -20 44 -50 112 -68 150 -17 39 -39 85 -47 104 -36 81 -137 324
-174 421 -22 58 -44 114 -49 125 -64 151 -222 632 -295 902 -34 126 -40 147
-51 202 -3 14 -7 28 -9 31 -12 19 -119 537 -131 630 -3 25 -7 52 -9 60 -2 8
-7 35 -10 60 -3 25 -10 70 -15 100 -5 30 -12 82 -15 115 -3 33 -8 69 -10 80
-2 11 -7 52 -10 90 -3 39 -8 93 -10 120 -34 353 -39 1119 -10 1625 9 152 17
278 20 320 2 25 6 79 9 120 3 41 8 91 11 110 2 19 7 71 10 114 4 43 8 86 10
95 1 9 6 48 9 86 4 39 9 81 11 95 2 14 9 68 15 120 6 52 13 106 16 120 2 14 7
45 10 70 3 25 7 56 9 70 2 14 7 43 10 65 8 47 64 381 70 410 2 11 9 45 15 75
6 30 13 69 16 85 3 17 7 35 8 40 1 6 13 61 26 123 l24 114 60 -6 c34 -3 72 -8
86 -10z"/>
<path d="M23837 5104 c-1 -1 -45 -5 -98 -8 -92 -6 -113 -9 -189 -22 -19 -3
-48 -8 -65 -11 -16 -3 -81 -18 -144 -34 -531 -138 -947 -466 -1171 -924 -46
-94 -116 -285 -126 -344 -3 -14 -9 -42 -14 -61 -8 -33 -13 -60 -25 -145 -3
-19 -8 -52 -11 -72 -6 -45 -6 -326 1 -398 5 -49 11 -99 21 -160 13 -80 57
-245 90 -332 167 -447 481 -793 909 -1002 201 -99 407 -160 630 -186 28 -4 61
-8 75 -11 32 -5 377 -5 410 0 14 3 57 7 95 11 144 12 179 17 295 40 14 3 41 8
60 11 19 3 62 13 95 21 33 8 67 16 76 18 9 2 47 13 85 24 331 102 536 237 622
410 l37 75 0 650 c0 358 -2 668 -4 689 l-3 37 -739 -2 -739 -3 3 -385 2 -385
255 0 c140 0 258 -3 261 -8 13 -18 1 -165 -15 -189 -29 -45 -136 -89 -251
-105 -69 -10 -318 -9 -385 1 -537 81 -833 541 -767 1191 49 467 347 703 895
707 301 3 445 -67 441 -214 -1 -29 -1 -94 0 -143 l1 -91 475 2 c262 1 478 4
481 6 6 7 5 634 -1 694 -19 184 -201 358 -500 477 -102 41 -264 88 -375 111
-76 15 -98 19 -180 31 -25 4 -56 8 -70 10 -78 12 -434 27 -443 19z"/>
<path d="M36999 5103 c-8 -2 -237 -4 -509 -5 l-495 -3 0 -373 c0 -206 3 -379
7 -385 5 -9 63 -12 190 -12 l183 0 2 -225 c6 -637 8 -1812 3 -1820 -4 -6 -79
-9 -188 -7 -156 2 -182 0 -183 -13 -1 -8 -1 -181 -1 -385 l1 -370 893 0 c491
0 905 2 921 4 l28 3 -1 385 -1 384 -185 -2 c-101 -1 -187 0 -190 4 -3 3 -8
465 -10 1026 l-3 1021 102 1 c56 0 141 1 190 0 l87 0 -2 387 -3 387 -411 0
c-226 0 -417 -1 -425 -2z"/>
<path d="M33166 5083 c-1 -1 -236 -3 -522 -4 l-520 -2 1 -384 c0 -247 4 -383
10 -384 6 -1 91 -2 190 -3 l180 -1 2 -180 c6 -487 8 -1857 3 -1864 -3 -5 -75
-9 -160 -9 -85 0 -168 -1 -185 -1 l-30 -1 2 -362 c1 -200 2 -373 2 -385 l1
-23 853 4 c468 2 870 5 892 5 l41 1 -2 377 c-1 208 -2 382 -3 386 -1 4 -71 7
-156 5 -85 -1 -157 1 -161 5 -4 3 -7 143 -8 309 l-1 303 76 1 c87 2 141 -14
172 -50 12 -14 69 -128 126 -253 58 -126 125 -271 149 -323 24 -52 84 -182
133 -288 49 -106 100 -215 114 -243 33 -64 107 -139 168 -168 111 -53 120 -54
605 -57 l452 -2 0 377 c0 207 -4 381 -8 386 -4 6 -53 11 -109 12 -113 1 -154
11 -195 46 -26 23 -77 125 -221 447 -116 260 -167 363 -211 424 -50 70 -174
191 -206 201 -13 4 -19 12 -16 21 3 8 157 216 343 462 l338 449 131 0 c72 0
135 2 140 6 7 4 11 660 4 760 0 12 -1569 4 -1573 -8 -3 -8 -1 -648 2 -742 1
-21 5 -22 101 -21 55 1 102 -1 105 -3 2 -3 -21 -41 -51 -84 -30 -44 -85 -125
-123 -180 -37 -55 -103 -149 -145 -210 l-76 -110 -114 -1 -114 -2 -1 294 -2
294 88 0 88 0 -1 380 c-1 210 -4 384 -8 387 -5 6 -584 11 -590 6z"/>
<path d="M30916 5073 c-1 -2 -250 -3 -553 -3 -418 -1 -552 -4 -555 -13 -3 -7
-4 -181 -3 -387 l2 -375 189 0 189 0 2 -185 c1 -102 4 -564 5 -1026 l4 -842
-184 0 c-100 0 -186 -3 -190 -6 -3 -4 -7 -178 -7 -387 l0 -380 910 5 c501 2
916 5 923 5 10 1 13 76 11 386 l-1 385 -185 -1 c-101 -1 -187 1 -190 4 -3 4
-7 465 -9 1027 l-4 1020 87 1 c49 0 134 1 191 1 l102 0 -1 384 c-2 271 -5 384
-13 385 -22 2 -718 4 -720 2z"/>
<path d="M13227 5064 c-1 -1 -47 -4 -102 -7 -105 -7 -216 -20 -288 -36 -23 -6
-53 -12 -67 -15 -255 -50 -508 -199 -644 -376 -69 -89 -144 -239 -161 -320 -2
-8 -8 -37 -15 -65 -37 -162 -32 -420 11 -575 104 -378 399 -605 1099 -845 204
-70 334 -121 382 -152 21 -13 40 -23 43 -23 12 0 78 -66 91 -91 36 -71 28
-133 -26 -186 -62 -63 -182 -96 -344 -94 -142 2 -238 26 -323 83 -73 49 -79
71 -82 316 l-1 53 -480 -2 c-338 -2 -480 -5 -481 -13 -1 -6 -1 -22 -1 -36 0
-14 1 -131 2 -260 2 -249 8 -308 43 -406 53 -145 137 -251 314 -394 7 -6 16
-10 22 -10 5 0 11 -4 13 -9 6 -18 196 -110 298 -146 220 -76 437 -109 710
-109 489 0 910 148 1162 407 187 192 280 435 282 737 1 137 -7 206 -39 315
-102 349 -392 569 -1020 775 -71 23 -143 48 -160 55 -16 7 -59 23 -95 35 -127
45 -232 103 -290 161 -59 58 -61 63 -63 141 -1 83 48 128 161 148 127 22 286
4 358 -41 64 -39 71 -62 73 -241 l1 -68 478 3 477 3 -1 319 c-1 341 -5 379
-56 480 -84 164 -279 304 -542 390 -109 35 -279 72 -366 80 -163 15 -366 25
-373 19z"/>
<path d="M26959 5063 c-8 -2 -241 -4 -519 -5 l-505 -3 0 -382 c0 -211 2 -384
5 -384 3 -1 88 -2 190 -3 l185 -1 1 -160 c1 -88 3 -549 5 -1025 l4 -865 -145
-2 c-80 -1 -165 -2 -190 -2 l-45 -1 2 -372 c1 -205 2 -379 2 -385 1 -10 187
-12 874 -9 479 2 881 5 892 5 21 1 21 4 19 374 -1 204 -3 378 -3 385 -1 10
-34 13 -161 10 l-160 -3 0 35 c-1 19 -2 159 -3 310 l-2 275 85 0 c101 -1 149
-20 180 -71 17 -29 107 -224 268 -574 45 -99 96 -208 180 -390 101 -215 147
-265 297 -318 63 -23 112 -25 543 -28 l443 -2 -2 386 -1 387 -115 1 c-99 2
-120 5 -161 26 -55 28 -72 59 -207 363 -13 28 -38 84 -57 125 -19 41 -59 129
-89 195 -29 66 -75 152 -100 190 -54 80 -170 199 -211 216 -15 6 -28 15 -28
19 0 5 225 310 308 417 9 12 98 129 197 261 l180 239 140 0 140 -1 -2 385 -2
384 -778 1 c-428 0 -783 -3 -788 -7 -7 -5 -10 -135 -9 -386 l1 -378 106 0 c59
0 107 -2 107 -5 0 -5 -295 -437 -317 -465 -4 -5 -25 -35 -46 -65 l-37 -56
-113 1 -112 0 -3 292 -3 292 88 3 88 3 -2 365 c-2 201 -3 374 -3 385 0 20 -7
20 -298 20 -164 0 -305 -1 -313 -2z"/>
<path d="M19411 5030 l-34 -5 -139 -440 c-77 -242 -141 -444 -142 -450 -1 -5
-24 -77 -50 -160 -26 -82 -75 -235 -108 -340 -33 -104 -66 -208 -73 -230 -7
-22 -22 -69 -33 -105 -43 -137 -135 -430 -172 -545 -110 -344 -134 -421 -137
-435 -1 -8 -11 -37 -21 -65 l-18 -50 -99 -2 c-55 -1 -116 -2 -135 -2 l-35 -1
0 -386 0 -385 810 3 810 3 2 386 1 386 -135 1 c-74 0 -137 2 -139 4 -3 4 34
196 57 288 l8 35 376 0 c424 0 386 8 404 -85 6 -30 13 -66 16 -80 3 -14 8 -36
11 -50 3 -14 8 -36 10 -50 3 -14 7 -33 10 -42 5 -17 -6 -18 -134 -18 l-140 0
0 -388 1 -387 206 2 c113 0 479 2 814 4 l607 3 0 383 c-1 211 -4 384 -8 384
-4 1 -65 2 -137 3 l-130 1 -103 315 c-129 394 -211 646 -347 1065 -58 182
-115 355 -125 385 -11 30 -71 217 -135 415 -64 198 -137 423 -163 500 l-47
140 -585 0 c-322 0 -600 -2 -619 -5z m605 -818 c-2 -4 2 -39 10 -77 8 -39 17
-85 20 -104 3 -18 7 -41 9 -50 1 -9 6 -36 10 -61 10 -61 39 -187 130 -565 13
-54 23 -100 22 -101 -2 -3 -367 -7 -415 -5 -13 1 -21 5 -18 10 4 7 55 214 70
286 1 6 5 19 9 30 3 11 8 31 11 45 2 14 9 45 16 70 7 25 14 54 16 65 3 11 9
40 15 65 5 25 12 54 14 65 2 11 9 45 15 75 10 54 15 83 26 165 10 77 16 95 30
95 9 0 13 -4 10 -8z"/>
<path d="M16116 5013 c-1 -1 -266 -3 -589 -4 l-588 -2 3 -659 3 -659 451 2
452 1 -2 232 c-1 127 -1 236 1 241 3 9 193 10 219 1 11 -4 14 -200 18 -1439 1
-351 -2 -531 -9 -535 -5 -4 -91 -7 -189 -7 l-180 0 1 -375 c1 -206 2 -380 2
-386 1 -11 357 -12 1724 -5 l118 1 -1 385 c-1 287 -4 385 -13 386 -7 0 -92 0
-189 0 -98 -1 -178 2 -178 6 -1 4 -3 451 -5 994 l-4 985 114 2 c84 1 115 -2
115 -11 1 -7 2 -115 3 -240 l2 -228 448 2 447 3 1 40 c1 23 1 64 1 91 0 28 -1
305 -2 617 l-2 567 -1085 -2 c-597 -1 -1086 -3 -1087 -4z"/>
<path d="M7306 4983 c-1 -1 -320 -3 -709 -5 l-708 -3 3 -385 3 -385 188 0
c122 1 187 -3 188 -10 0 -5 1 -145 2 -310 l2 -300 -120 -2 c-130 -1 -846 -4
-882 -4 l-21 1 -1 310 -1 310 112 1 c62 1 147 2 188 2 l75 2 0 385 0 384 -750
-3 c-412 -1 -826 -3 -920 -4 l-170 -2 0 -378 c0 -209 2 -382 5 -386 3 -4 88
-7 190 -6 l185 0 2 -145 c0 -80 3 -541 5 -1025 l3 -880 -181 -1 c-99 0 -184
-3 -190 -6 -7 -5 -11 -646 -5 -756 1 -10 182 -12 919 -9 l917 4 2 387 1 387
-176 -1 c-98 -1 -184 -1 -192 -1 -13 1 -15 40 -15 294 l0 292 511 2 511 2 2
-294 2 -294 -98 0 c-54 0 -139 0 -190 0 l-92 -1 1 -385 c1 -346 3 -385 17
-386 46 -1 1813 8 1821 10 5 1 5 733 1 763 -1 3 -72 6 -158 6 -87 0 -172 1
-189 1 l-30 1 -3 553 c-2 303 -4 764 -4 1022 l-2 470 190 3 190 2 -1 381 c-1
209 -5 383 -8 386 -5 5 -415 11 -420 6z"/>
<path d="M9226 4980 c-27 -5 -31 -12 -73 -145 -25 -77 -46 -144 -47 -150 -1
-5 -25 -82 -54 -170 -80 -253 -173 -543 -198 -625 -26 -88 -136 -434 -190
-600 -20 -63 -45 -142 -55 -175 -9 -33 -35 -116 -57 -185 -22 -69 -70 -219
-107 -335 -36 -115 -80 -255 -98 -310 -17 -55 -31 -103 -29 -107 5 -18 -42
-26 -158 -26 l-125 0 0 -377 c0 -207 3 -381 6 -386 3 -6 322 -8 813 -7 l807 3
-3 385 -3 385 -133 1 c-73 1 -135 4 -137 6 -4 4 55 309 62 317 7 10 763 10
764 1 1 -6 2 -13 3 -17 1 -5 6 -26 11 -48 4 -22 9 -44 11 -50 4 -16 35 -157
40 -183 4 -22 4 -22 -135 -22 l-140 0 2 -385 1 -385 60 -1 c86 0 227 0 939 1
l627 2 0 384 c-1 293 -4 384 -13 385 -7 1 -68 2 -137 3 l-125 1 -41 125 c-52
156 -131 397 -274 840 -61 190 -120 370 -130 400 -21 63 -98 302 -260 800 -61
190 -135 415 -163 500 l-52 155 -590 0 c-325 0 -604 -2 -619 -5z m610 -836 c2
-10 10 -55 18 -99 18 -91 24 -125 32 -175 3 -19 24 -111 46 -205 22 -93 44
-188 49 -211 4 -22 19 -87 34 -143 14 -57 24 -105 23 -107 -4 -3 -339 -7 -404
-5 l-32 1 13 48 c8 26 32 126 54 222 23 96 45 191 50 210 15 54 39 161 46 200
3 19 10 58 15 85 9 50 22 134 26 168 1 9 2 22 3 28 2 18 24 4 27 -17z"/>
<path d="M1213 4952 c-140 -2 -143 -3 -144 -25 0 -12 -2 -29 -4 -37 -2 -8 -6
-31 -9 -50 -4 -19 -9 -46 -11 -60 -3 -14 -7 -38 -10 -55 -2 -16 -8 -55 -14
-85 -5 -30 -12 -71 -15 -90 -3 -19 -10 -57 -15 -85 -5 -27 -12 -68 -15 -90 -4
-23 -9 -52 -11 -65 -9 -42 -57 -334 -58 -347 0 -12 -190 -19 -374 -13 -48 1
-51 0 -57 -27 -9 -40 -19 -100 -32 -178 -1 -11 -10 -63 -18 -115 -9 -52 -18
-113 -22 -135 -3 -22 -14 -87 -25 -145 -11 -63 -15 -107 -9 -110 5 -3 100 -5
210 -4 198 1 200 1 200 -20 0 -29 -46 -265 -53 -272 -3 -3 -101 -7 -218 -7
-180 -2 -212 -4 -214 -17 -4 -26 -13 -73 -23 -135 -6 -33 -14 -80 -17 -105 -3
-25 -8 -52 -10 -60 -2 -8 -7 -33 -10 -55 -3 -23 -8 -52 -10 -65 -3 -14 -8 -45
-11 -70 -3 -25 -7 -47 -9 -50 -3 -5 -17 -103 -19 -135 -1 -19 5 -20 214 -20
241 0 221 7 207 -75 -3 -19 -9 -53 -12 -75 -3 -22 -10 -62 -15 -90 -5 -27 -12
-67 -14 -87 -3 -21 -10 -57 -15 -80 -5 -24 -12 -67 -16 -97 -4 -30 -9 -63 -11
-75 -2 -12 -7 -37 -10 -56 -3 -19 -7 -42 -9 -50 -2 -8 -7 -35 -10 -60 -4 -25
-10 -64 -14 -87 l-8 -42 394 1 c216 1 395 4 397 7 2 3 7 22 10 41 3 19 7 44
10 55 2 11 7 42 10 68 4 27 9 56 11 65 2 15 50 300 60 357 2 11 6 36 9 55 3
19 8 46 10 60 2 14 7 41 11 60 12 67 13 75 14 93 1 16 18 17 215 17 l215 0 -6
-37 c-3 -21 -36 -217 -73 -436 -36 -218 -65 -398 -64 -400 2 -2 663 0 772 2
18 1 31 5 28 9 -2 4 2 37 9 72 7 36 15 81 18 100 3 19 13 82 22 140 9 58 18
114 20 125 5 32 25 147 30 178 8 43 12 69 20 112 3 22 11 63 16 90 l9 50 222
0 222 0 8 30 c4 17 10 48 13 70 3 22 7 51 10 65 2 13 7 42 10 65 4 22 9 54 12
70 3 17 7 39 8 50 2 11 9 52 15 90 7 39 14 85 16 103 3 18 10 64 18 102 l13
70 -176 -1 c-252 -1 -283 0 -277 9 3 5 7 22 10 38 21 113 28 149 32 182 9 72
-8 67 231 67 120 0 226 2 235 3 9 2 16 11 16 20 0 10 2 31 5 47 3 17 9 50 12
75 3 25 8 52 10 60 4 14 8 40 20 128 3 20 10 60 15 87 5 28 16 100 25 160 9
61 18 116 21 123 3 11 -31 13 -179 12 -309 -3 -290 -5 -282 28 4 15 22 119 41
232 19 113 44 257 55 320 12 63 22 124 24 135 2 11 6 38 9 60 3 22 12 78 21
125 8 47 15 88 15 91 0 8 -786 6 -793 -1 -3 -3 -8 -23 -11 -45 -4 -22 -16 -89
-27 -150 -11 -60 -22 -126 -24 -145 -3 -19 -7 -44 -9 -55 -2 -11 -7 -40 -11
-65 -4 -25 -9 -52 -10 -60 -1 -8 -6 -35 -10 -60 -4 -25 -9 -54 -11 -65 -3 -11
-7 -35 -10 -54 -6 -37 -11 -63 -19 -101 -3 -14 -7 -41 -9 -60 -10 -78 -18
-125 -22 -129 -2 -3 -99 -6 -215 -8 l-211 -3 7 48 c3 26 12 83 20 127 8 44 17
95 20 113 12 77 17 103 35 207 11 61 22 126 25 145 3 19 10 60 16 90 6 30 12
73 15 95 2 22 6 46 9 54 3 8 8 37 11 65 3 28 7 53 9 56 3 5 -418 7 -652 2z
m792 -1713 c2 -2 -3 -40 -10 -84 -8 -44 -17 -96 -20 -115 -3 -19 -9 -48 -13
-65 l-8 -30 -210 0 c-203 0 -209 1 -207 20 3 28 11 85 18 115 6 31 25 143 25
152 0 11 414 17 425 7z"/>
</g>
</svg>
